# File created by Blade
# Date/Time:  Wed Apr 08 17:00:17 2015
# Frame Rate: 120.000 fps
#------------------------------------------------------
:FULLY-SPECIFIED
:DEGREES
1234
root 1.072316 35.660049 2.670375 -28.061663 -78.661494 14.374432
Spine 7.839756 1.304825 -10.033858
Head 10.353821 -7.516614 3.056376
LeftShoulder 7.390858 -0.752180 24.273710
LeftArm 95.927418 44.931380 -39.248563
LeftForeArm -34.482486 -0.000000 99.169907
LeftHand -27.132671 -0.000000 15.787757
LeftHandThumb1 -26.253704 0.000000 33.147579
RightShoulder 2.394734 -25.923311 -27.100220
RightArm 107.131028 34.526016 100.645327
RightForeArm 56.098648 -0.000000 1.892929
RightHand 10.090341 -0.000000 -6.376856
RightHandThumb1 -24.326973 -0.000000 -32.862282
LeftUpLeg 15.625358 6.786294 6.350112
LeftLeg 11.425536 -0.000000 -0.000000
LeftFoot -13.776584 -3.470953 -12.129737
LeftToeBase 9.947592 -0.000000 -0.000000
RightUpLeg 25.157094 -17.963707 -18.004898
RightLeg 1.457653 -0.000000 -0.000000
RightFoot -12.079781 5.827733 20.086277
RightToeBase 14.661579 -0.000000 -0.000000
1235
root 1.080016 35.660421 2.670956 -27.947404 -78.593618 14.268586
Spine 7.886379 1.372945 -10.050844
Head 10.275389 -7.552237 3.124588
LeftShoulder 7.378122 -0.732747 24.295328
LeftArm 95.966774 44.929677 -39.161813
LeftForeArm -34.625148 -0.000000 99.172833
LeftHand -27.177344 -0.000000 15.787717
LeftHandThumb1 -26.253704 0.000000 33.147579
RightShoulder 2.460154 -26.039112 -27.078661
RightArm 106.639158 34.598846 100.011580
RightForeArm 55.124661 -0.000000 1.356139
RightHand 9.800870 -0.000000 -6.103447
RightHandThumb1 -24.326973 -0.000000 -32.862282
LeftUpLeg 15.593528 6.777124 6.346711
LeftLeg 11.417892 -0.000000 -0.000000
LeftFoot -13.767660 -3.495037 -12.073874
LeftToeBase 9.984358 -0.000000 -0.000000
RightUpLeg 25.160185 -18.030299 -18.022515
RightLeg 1.464391 -0.000000 -0.000000
RightFoot -12.070054 5.826414 20.083937
RightToeBase 14.622944 -0.000000 -0.000000
1236
root 1.088671 35.661630 2.672212 -27.877502 -78.529470 14.217662
Spine 7.919280 1.443794 -10.076516
Head 10.208119 -7.572871 3.199677
LeftShoulder 7.372259 -0.708921 24.305856
LeftArm 96.019611 44.929736 -39.045157
LeftForeArm -34.812741 0.000000 99.183748
LeftHand -27.304233 -0.000000 15.811737
LeftHandThumb1 -26.253704 0.000000 33.147579
RightShoulder 2.528629 -26.138182 -27.046352
RightArm 106.227768 34.599592 99.553498
RightForeArm 53.827018 -0.000000 0.929860
RightHand 9.581113 -0.000000 -6.058543
RightHandThumb1 -24.326973 -0.000000 -32.862282
LeftUpLeg 15.551174 6.736236 6.324990
LeftLeg 11.404758 -0.000000 -0.000000
LeftFoot -13.724293 -3.533599 -12.110822
LeftToeBase 9.945933 -0.000000 -0.000000
RightUpLeg 25.152188 -18.083319 -18.041128
RightLeg 1.462725 -0.000000 -0.000000
RightFoot -12.059315 5.821539 20.104027
RightToeBase 14.619001 -0.000000 -0.000000
1237
root 1.096222 35.662297 2.672531 -27.775072 -78.468635 14.125011
Spine 7.957764 1.518376 -10.096733
Head 10.160287 -7.596250 3.285790
LeftShoulder 7.395298 -0.735091 24.340778
LeftArm 96.026572 44.971706 -38.972316
LeftForeArm -34.987492 -0.000000 99.209118
LeftHand -27.540880 -0.000000 15.861656
LeftHandThumb1 -26.253704 0.000000 33.147579
RightShoulder 2.603782 -26.213434 -26.995492
RightArm 105.497214 34.732367 98.615701
RightForeArm 52.815526 -0.000000 0.634037
RightHand 9.257717 -0.000000 -6.003767
RightHandThumb1 -24.326973 -0.000000 -32.862282
LeftUpLeg 15.521575 6.712643 6.320673
LeftLeg 11.392667 -0.000000 -0.000000
LeftFoot -13.706921 -3.568543 -12.105973
LeftToeBase 9.958408 -0.000000 -0.000000
RightUpLeg 25.159721 -18.153490 -18.057701
RightLeg 1.452657 -0.000000 -0.000000
RightFoot -12.054031 5.809025 20.088596
RightToeBase 14.645426 -0.000000 -0.000000
1238
root 1.104928 35.662996 2.674619 -27.693001 -78.409308 14.061819
Spine 7.989225 1.601219 -10.112298
Head 10.106258 -7.618006 3.354612
LeftShoulder 7.403831 -0.754263 24.369254
LeftArm 96.082199 45.002594 -38.851515
LeftForeArm -35.270113 -0.000000 99.187322
LeftHand -27.557884 -0.000000 15.893265
LeftHandThumb1 -26.253704 0.000000 33.147579
RightShoulder 2.669681 -26.310661 -26.939873
RightArm 104.861591 34.819144 97.806210
RightForeArm 51.613707 -0.000000 0.403324
RightHand 9.001250 -0.000000 -5.978003
RightHandThumb1 -24.326973 -0.000000 -32.862282
LeftUpLeg 15.483113 6.673951 6.299236
LeftLeg 11.374965 -0.000000 -0.000000
LeftFoot -13.702301 -3.580058 -12.099295
LeftToeBase 10.042736 -0.000000 -0.000000
RightUpLeg 25.160574 -18.209567 -18.074011
RightLeg 1.431727 -0.000000 -0.000000
RightFoot -12.037173 5.799891 20.099608
RightToeBase 14.662408 -0.000000 -0.000000
1239
root 1.113640 35.663211 2.676277 -27.627785 -78.360509 14.007122
Spine 8.030291 1.675063 -10.122805
Head 10.048263 -7.594010 3.420868
LeftShoulder 7.390133 -0.761067 24.402049
LeftArm 96.175883 45.025942 -38.703762
LeftForeArm -35.545363 -0.000000 99.134487
LeftHand -27.558635 -0.000000 15.907314
LeftHandThumb1 -26.253704 0.000000 33.147579
RightShoulder 2.737775 -26.467140 -26.871711
RightArm 104.345157 34.871708 97.073565
RightForeArm 50.195661 -0.000000 0.246787
RightHand 8.790681 0.000000 -6.014608
RightHandThumb1 -24.326973 -0.000000 -32.862282
LeftUpLeg 15.443022 6.681460 6.291335
LeftLeg 11.390669 -0.000000 -0.000000
LeftFoot -13.694542 -3.603979 -12.046759
LeftToeBase 10.017041 -0.000000 -0.000000
RightUpLeg 25.161083 -18.271894 -18.096354
RightLeg 1.424937 -0.000000 -0.000000
RightFoot -12.022957 5.807945 20.093176
RightToeBase 14.641303 -0.000000 -0.000000
1240
root 1.121376 35.663624 2.678285 -27.596546 -78.319199 13.978441
Spine 8.071436 1.754803 -10.135465
Head 10.032934 -7.574138 3.485817
LeftShoulder 7.388744 -0.746407 24.438071
LeftArm 96.248738 45.037987 -38.592077
LeftForeArm -35.893292 0.000000 99.070398
LeftHand -27.625337 -0.000000 15.853169
LeftHandThumb1 -26.253704 0.000000 33.147579
RightShoulder 2.814121 -26.594819 -26.813944
RightArm 103.783895 34.910640 96.332999
RightForeArm 48.623800 -0.000000 0.155195
RightHand 8.532532 -0.000000 -5.963013
RightHandThumb1 -24.326973 -0.000000 -32.862282
LeftUpLeg 15.420042 6.654967 6.274712
LeftLeg 11.386839 -0.000000 -0.000000
LeftFoot -13.685931 -3.624289 -12.080699
LeftToeBase 10.058523 -0.000000 -0.000000
RightUpLeg 25.169718 -18.325696 -18.122679
RightLeg 1.413865 -0.000000 -0.000000
RightFoot -12.015379 5.811265 20.079736
RightToeBase 14.671476 -0.000000 -0.000000
1241
root 1.130113 35.663227 2.681518 -27.599958 -78.277938 13.982647
Spine 8.123056 1.836731 -10.142229
Head 9.998914 -7.562738 3.513579
LeftShoulder 7.390848 -0.744209 24.469189
LeftArm 96.308273 45.067578 -38.492646
LeftForeArm -36.120348 -0.000000 98.979476
LeftHand -27.606790 -0.000000 15.733000
LeftHandThumb1 -26.253704 0.000000 33.147579
RightShoulder 2.905821 -26.756153 -26.773872
RightArm 103.228039 34.983253 95.551075
RightForeArm 46.930821 -0.000000 0.132262
RightHand 8.239924 0.000000 -6.007289
RightHandThumb1 -24.326973 -0.000000 -32.862282
LeftUpLeg 15.391722 6.619690 6.242391
LeftLeg 11.397929 -0.000000 -0.000000
LeftFoot -13.685575 -3.611251 -12.051598
LeftToeBase 10.049519 -0.000000 -0.000000
RightUpLeg 25.173556 -18.347171 -18.144086
RightLeg 1.407850 -0.000000 -0.000000
RightFoot -12.015437 5.801385 20.075903
RightToeBase 14.676228 -0.000000 -0.000000
1242
root 1.139087 35.662982 2.683963 -27.571181 -78.243023 13.953765
Spine 8.175615 1.913908 -10.133716
Head 9.973734 -7.552523 3.530404
LeftShoulder 7.400213 -0.761427 24.486697
LeftArm 96.365355 45.096881 -38.373569
LeftForeArm -36.381724 0.000000 98.894834
LeftHand -27.568186 0.000000 15.662828
LeftHandThumb1 -26.253704 0.000000 33.147579
RightShoulder 3.004737 -26.813851 -26.760940
RightArm 102.498239 35.076687 94.649777
RightForeArm 45.284861 -0.000000 0.150295
RightHand 8.061727 -0.000000 -6.137758
RightHandThumb1 -24.326973 -0.000000 -32.862282
LeftUpLeg 15.354344 6.577177 6.214323
LeftLeg 11.425212 -0.000000 -0.000000
LeftFoot -13.693345 -3.590911 -12.047534
LeftToeBase 10.072506 -0.000000 -0.000000
RightUpLeg 25.170520 -18.363628 -18.153949
RightLeg 1.408947 -0.000000 -0.000000
RightFoot -12.018165 5.786202 20.087841
RightToeBase 14.670148 -0.000000 -0.000000
1243
root 1.149663 35.662321 2.687370 -27.587963 -78.204273 13.963774
Spine 8.242495 2.004249 -10.127978
Head 9.942136 -7.558933 3.528410
LeftShoulder 7.423931 -0.752094 24.525314
LeftArm 96.461491 45.074088 -38.233171
LeftForeArm -36.647400 -0.000000 98.830306
LeftHand -27.522274 0.000000 15.661931
LeftHandThumb1 -26.253704 0.000000 33.147579
RightShoulder 3.101603 -26.917925 -26.742327
RightArm 101.864459 35.168283 93.794111
RightForeArm 43.542083 0.000000 0.188873
RightHand 7.740752 -0.000000 -5.972672
RightHandThumb1 -24.326973 -0.000000 -32.862282
LeftUpLeg 15.314738 6.529661 6.174270
LeftLeg 11.469181 -0.000000 -0.000000
LeftFoot -13.704605 -3.558540 -12.026705
LeftToeBase 10.043249 -0.000000 -0.000000
RightUpLeg 25.166348 -18.359626 -18.164695
RightLeg 1.417028 -0.000000 -0.000000
RightFoot -12.042638 5.753984 20.104915
RightToeBase 14.681596 -0.000000 -0.000000
